<?xml version="1.0" encoding="utf-8"?>
<!-- Svg Vector Icons : http://www.onlinewebfonts.com/icon -->
<!DOCTYPE svg PUBLIC "-//W3C//DTD SVG 1.1//EN" "http://www.w3.org/Graphics/SVG/1.1/DTD/svg11.dtd">
<svg version="1.1" xmlns="http://www.w3.org/2000/svg" xmlns:xlink="http://www.w3.org/1999/xlink" x="0px" y="0px" viewBox="0 0 256 256" enable-background="new 0 0 256 256" xml:space="preserve">
<metadata> Svg Vector Icons : http://www.onlinewebfonts.com/icon </metadata>
<g><g><g><path fill="#000000" d="M17,14c-3.2,1.5-4.6,3-6,6.3c-0.9,2.1-1,14.5-1,107.7c0,93.3,0.1,105.6,1,107.7c1.4,3.4,2.8,4.8,6,6.3c2.5,1.2,6,1.3,64.8,1.3c46.1,0,62.6-0.2,64-0.8c1-0.4,9.5-8.3,18.8-17.6l16.9-16.8V179v-29.2l-3.1,4.2c-1.7,2.3-4.1,4.8-5.4,5.5l-2.3,1.5v21.2v21.3L156.3,218l-14.5,14.5l-60.3-0.1l-60.3-0.2V128V23.7h74.8h74.8l0.2,35.5l0.1,35.5l5.4-7.3l5.4-7.3V51.4c0-24.3-0.1-29.1-1-31.2c-1.4-3.4-2.8-4.8-6-6.3c-2.5-1.2-6.4-1.3-78.8-1.3C23.4,12.7,19.6,12.8,17,14z"/><path fill="#000000" d="M221.7,34.9c-0.5,0.5-17.6,23.4-37.7,51L147.3,136l-2.2,14.6c-1.2,8-2.1,14.6-2,14.8c0.1,0.1,6.5-2.3,14.3-5.4l14.1-5.6l37.3-50.9c20.5-28,37.3-51.5,37.3-52.2C246,43.5,227.1,30.7,221.7,34.9z M230.6,47.7c1.5,1.2,3,2.5,3.1,2.9c0.1,0.3-15.3,21.8-34.2,47.6c-31.4,42.8-34.6,47.1-37.3,48.4c-1.7,0.8-3.7,1.6-4.6,1.9c-1.5,0.5-1.5,0.4-1.1-2.8c0.3-1.7,0.7-3.9,1-4.8c0.7-1.9,69.1-95.3,69.7-95.3C227.6,45.5,229.1,46.5,230.6,47.7z"/><path fill="#000000" d="M36.8,77v5.4h56.3h56.3V77v-5.4H93.1H36.8V77z"/><path fill="#000000" d="M36.8,109.2v5.4h56.3h56.3v-5.4v-5.4H93.1H36.8V109.2z"/><path fill="#000000" d="M36.8,141.4v5.4h45.6H128v-5.4V136H82.4H36.8V141.4z"/><path fill="#000000" d="M36.8,173.6v5.4h45.6H128v-5.4v-5.4H82.4H36.8V173.6z"/></g></g></g>
</svg>


